<svg width="40" height="41" viewBox="0 0 40 41" fill="none" xmlns="http://www.w3.org/2000/svg">
<g clip-path="url(#clip0_1153_685)">
<path d="M6.17188 33.6546H12.1875V15.5817H6.17188V33.6546ZM12.5781 10.0088C12.5608 9.10601 12.2483 8.35948 11.6406 7.76921C11.033 7.17893 10.2257 6.88379 9.21875 6.88379C8.21181 6.88379 7.39149 7.17893 6.75781 7.76921C6.12413 8.35948 5.80729 9.10601 5.80729 10.0088C5.80729 10.8942 6.11545 11.6364 6.73177 12.2354C7.34809 12.8343 8.15104 13.1338 9.14062 13.1338H9.16667C10.191 13.1338 11.0156 12.8343 11.6406 12.2354C12.2656 11.6364 12.5781 10.8942 12.5781 10.0088ZM27.8125 33.6546H33.8281V23.29C33.8281 20.6164 33.1944 18.5939 31.9271 17.2223C30.6597 15.8508 28.9844 15.165 26.901 15.165C24.5399 15.165 22.7257 16.1807 21.4583 18.2119H21.5104V15.5817H15.4948C15.5469 16.7275 15.5469 22.7518 15.4948 33.6546H21.5104V23.5505C21.5104 22.8907 21.5712 22.4046 21.6927 22.0921C21.9531 21.4845 22.3438 20.968 22.8646 20.5426C23.3854 20.1173 24.0278 19.9046 24.7917 19.9046C26.8056 19.9046 27.8125 21.2675 27.8125 23.9932V33.6546ZM40 7.66504V32.665C40 34.731 39.2665 36.4975 37.7995 37.9645C36.3325 39.4315 34.566 40.165 32.5 40.165H7.5C5.43403 40.165 3.66753 39.4315 2.20052 37.9645C0.733507 36.4975 0 34.731 0 32.665V7.66504C0 5.59907 0.733507 3.83257 2.20052 2.36556C3.66753 0.898546 5.43403 0.165039 7.5 0.165039H32.5C34.566 0.165039 36.3325 0.898546 37.7995 2.36556C39.2665 3.83257 40 5.59907 40 7.66504Z" fill="white"/>
</g>
<defs>
<clipPath id="clip0_1153_685">
<rect width="40" height="40" fill="white" transform="translate(0 0.165039)"/>
</clipPath>
</defs>
</svg>
