<svg width="40" height="41" viewBox="0 0 40 41" fill="none" xmlns="http://www.w3.org/2000/svg">
<g clip-path="url(#clip0_1153_704)">
<path d="M30.625 0.165039H9.375C4.19733 0.165039 0 4.36237 0 9.54004V30.79C0 35.9677 4.19733 40.165 9.375 40.165H30.625C35.8027 40.165 40 35.9677 40 30.79V9.54004C40 4.36237 35.8027 0.165039 30.625 0.165039Z" fill="black"/>
<path d="M20.0002 4.85254C11.3717 4.85254 4.375 11.8479 4.375 20.4777C4.375 27.3813 8.85203 33.2382 15.0605 35.3043C15.8413 35.4489 16.128 34.9654 16.128 34.5527C16.128 34.18 16.1134 32.9493 16.1067 31.6436C11.7598 32.5888 10.8427 29.8 10.8427 29.8C10.1317 27.9939 9.10766 27.5138 9.10766 27.5138C7.69 26.5439 9.21453 26.5639 9.21453 26.5639C10.7836 26.6741 11.6098 28.1741 11.6098 28.1741C13.0034 30.5629 15.2652 29.8722 16.1567 29.473C16.297 28.463 16.7019 27.7738 17.1488 27.3836C13.6783 26.9885 10.03 25.6486 10.03 19.6616C10.03 17.9557 10.6403 16.5618 11.6398 15.4675C11.4775 15.0739 10.9427 13.4847 11.7911 11.3325C11.7911 11.3325 13.1033 10.9127 16.0892 12.9341C17.3356 12.588 18.6722 12.4144 20.0002 12.4085C21.328 12.4144 22.6658 12.588 23.9144 12.9343C26.8967 10.9125 28.207 11.3327 28.207 11.3327C29.0575 13.4847 28.5225 15.0741 28.3602 15.4675C29.362 16.5618 29.9683 17.9557 29.9683 19.6616C29.9683 25.663 26.313 26.9844 22.8336 27.3711C23.3941 27.8561 23.8934 28.8069 23.8934 30.2647C23.8934 32.3554 23.8753 34.038 23.8753 34.5527C23.8753 34.9685 24.1566 35.4557 24.9486 35.3022C31.1536 33.2338 35.625 27.3789 35.625 20.4777C35.625 11.848 28.6292 4.85254 20.0002 4.85254ZM10.2272 27.1108C10.1928 27.1885 10.0706 27.2118 9.95938 27.1585C9.84594 27.1075 9.78234 27.0016 9.81906 26.9238C9.85266 26.8438 9.97516 26.8216 10.0881 26.8752C10.2017 26.9261 10.2664 27.033 10.2272 27.1108ZM10.9958 27.7966C10.9213 27.8658 10.7755 27.8336 10.6767 27.7244C10.5745 27.6155 10.5553 27.4699 10.6309 27.3997C10.7077 27.3307 10.8491 27.363 10.9514 27.4719C11.0536 27.5822 11.0736 27.7268 10.9958 27.7966ZM11.523 28.6741C11.4272 28.7407 11.2706 28.6783 11.1739 28.5393C11.0781 28.4004 11.0781 28.2338 11.1759 28.1669C11.273 28.1002 11.4272 28.1602 11.5253 28.2982C11.6208 28.4394 11.6208 28.6061 11.523 28.6741ZM12.4147 29.6904C12.3291 29.7847 12.1467 29.7594 12.0131 29.6305C11.8766 29.5046 11.8384 29.3258 11.9244 29.2313C12.0111 29.1366 12.1945 29.1633 12.3291 29.2911C12.4647 29.4168 12.5061 29.5969 12.4147 29.6904ZM13.5672 30.0333C13.5294 30.1558 13.3538 30.2114 13.1767 30.1594C13.0002 30.1058 12.8844 29.9625 12.9202 29.8388C12.9569 29.7157 13.1333 29.6577 13.3116 29.7133C13.4881 29.7666 13.6039 29.9089 13.5672 30.0333ZM14.8787 30.1789C14.8831 30.3077 14.7331 30.4146 14.5473 30.4169C14.3605 30.4211 14.2094 30.3168 14.2073 30.19C14.2073 30.0599 14.3541 29.9541 14.5408 29.951C14.7267 29.9474 14.8787 30.0508 14.8787 30.1789ZM16.1672 30.1296C16.1895 30.2552 16.0605 30.3844 15.8759 30.4188C15.6945 30.4519 15.5266 30.3743 15.5036 30.2496C15.4811 30.1207 15.6125 29.9916 15.7936 29.9582C15.9784 29.9261 16.1438 30.0018 16.1672 30.1296Z" fill="white"/>
</g>
<defs>
<clipPath id="clip0_1153_704">
<rect width="40" height="40" fill="white" transform="translate(0 0.165039)"/>
</clipPath>
</defs>
</svg>
